<mxfile host="Electron" agent="Mozilla/5.0 (X11; Linux x86_64) AppleWebKit/537.36 (KHTML, like Gecko) draw.io/26.0.4 Chrome/128.0.6613.186 Electron/32.2.5 Safari/537.36" version="26.0.4">
  <diagram name="Page-1" id="rCn8DeLHsauY7BZAa8gO">
    <mxGraphModel dx="844" dy="781" grid="1" gridSize="10" guides="1" tooltips="1" connect="1" arrows="1" fold="1" page="1" pageScale="1" pageWidth="850" pageHeight="1100" math="0" shadow="0">
      <root>
        <mxCell id="0" />
        <mxCell id="1" parent="0" />
        <mxCell id="y5g6oIxMcVuhCrkf3PNG-2" value="kernel" style="rounded=0;whiteSpace=wrap;html=1;" vertex="1" parent="1">
          <mxGeometry x="50" y="230" width="120" height="160" as="geometry" />
        </mxCell>
        <mxCell id="y5g6oIxMcVuhCrkf3PNG-4" value="c runtime&amp;nbsp;" style="rounded=0;whiteSpace=wrap;html=1;" vertex="1" parent="1">
          <mxGeometry x="240" y="230" width="120" height="160" as="geometry" />
        </mxCell>
        <mxCell id="y5g6oIxMcVuhCrkf3PNG-5" value="c executable code / or executable" style="rounded=0;whiteSpace=wrap;html=1;" vertex="1" parent="1">
          <mxGeometry x="425" y="240" width="120" height="160" as="geometry" />
        </mxCell>
        <mxCell id="y5g6oIxMcVuhCrkf3PNG-14" value="" style="endArrow=classic;html=1;rounded=0;" edge="1" parent="1">
          <mxGeometry width="50" height="50" relative="1" as="geometry">
            <mxPoint x="205" y="265" as="sourcePoint" />
            <mxPoint x="275" y="125" as="targetPoint" />
          </mxGeometry>
        </mxCell>
        <mxCell id="y5g6oIxMcVuhCrkf3PNG-15" value="calls kernel api, like text &quot;write()&quot;" style="text;html=1;align=center;verticalAlign=middle;whiteSpace=wrap;rounded=0;" vertex="1" parent="1">
          <mxGeometry x="200" y="50" width="200" height="30" as="geometry" />
        </mxCell>
        <mxCell id="y5g6oIxMcVuhCrkf3PNG-17" value="double linked list because it has some notion of input /output" style="text;html=1;align=center;verticalAlign=middle;whiteSpace=wrap;rounded=0;" vertex="1" parent="1">
          <mxGeometry x="240" y="170" width="560" height="30" as="geometry" />
        </mxCell>
        <mxCell id="y5g6oIxMcVuhCrkf3PNG-21" value="" style="endArrow=classic;html=1;rounded=0;exitX=-0.024;exitY=0.301;exitDx=0;exitDy=0;exitPerimeter=0;entryX=1.026;entryY=0.314;entryDx=0;entryDy=0;entryPerimeter=0;" edge="1" parent="1" source="y5g6oIxMcVuhCrkf3PNG-4" target="y5g6oIxMcVuhCrkf3PNG-2">
          <mxGeometry width="50" height="50" relative="1" as="geometry">
            <mxPoint x="360" y="420" as="sourcePoint" />
            <mxPoint x="410" y="370" as="targetPoint" />
          </mxGeometry>
        </mxCell>
        <mxCell id="y5g6oIxMcVuhCrkf3PNG-22" value="Text" style="text;html=1;align=center;verticalAlign=middle;whiteSpace=wrap;rounded=0;" vertex="1" parent="1">
          <mxGeometry x="180" y="290" width="60" height="30" as="geometry" />
        </mxCell>
        <mxCell id="y5g6oIxMcVuhCrkf3PNG-23" value="" style="endArrow=classic;html=1;rounded=0;exitX=1;exitY=0.75;exitDx=0;exitDy=0;entryX=0;entryY=0.75;entryDx=0;entryDy=0;" edge="1" parent="1" source="y5g6oIxMcVuhCrkf3PNG-2" target="y5g6oIxMcVuhCrkf3PNG-4">
          <mxGeometry width="50" height="50" relative="1" as="geometry">
            <mxPoint x="230" y="550" as="sourcePoint" />
            <mxPoint x="280" y="500" as="targetPoint" />
          </mxGeometry>
        </mxCell>
        <mxCell id="y5g6oIxMcVuhCrkf3PNG-24" value="Text / binary" style="text;html=1;align=center;verticalAlign=middle;whiteSpace=wrap;rounded=0;" vertex="1" parent="1">
          <mxGeometry x="180" y="370" width="60" height="30" as="geometry" />
        </mxCell>
        <mxCell id="y5g6oIxMcVuhCrkf3PNG-25" value="" style="endArrow=classic;html=1;rounded=0;exitX=0;exitY=0.25;exitDx=0;exitDy=0;" edge="1" parent="1" source="y5g6oIxMcVuhCrkf3PNG-5">
          <mxGeometry width="50" height="50" relative="1" as="geometry">
            <mxPoint x="410" y="510" as="sourcePoint" />
            <mxPoint x="360" y="280" as="targetPoint" />
          </mxGeometry>
        </mxCell>
        <mxCell id="y5g6oIxMcVuhCrkf3PNG-26" value="Text" style="text;html=1;align=center;verticalAlign=middle;whiteSpace=wrap;rounded=0;" vertex="1" parent="1">
          <mxGeometry x="360" y="295" width="60" height="30" as="geometry" />
        </mxCell>
        <mxCell id="y5g6oIxMcVuhCrkf3PNG-27" value="" style="endArrow=classic;html=1;rounded=0;exitX=0.992;exitY=0.812;exitDx=0;exitDy=0;entryX=0;entryY=0.75;entryDx=0;entryDy=0;exitPerimeter=0;" edge="1" parent="1" source="y5g6oIxMcVuhCrkf3PNG-4" target="y5g6oIxMcVuhCrkf3PNG-5">
          <mxGeometry width="50" height="50" relative="1" as="geometry">
            <mxPoint x="570" y="510" as="sourcePoint" />
            <mxPoint x="640" y="510" as="targetPoint" />
          </mxGeometry>
        </mxCell>
        <mxCell id="y5g6oIxMcVuhCrkf3PNG-28" value="Text / binary" style="text;html=1;align=center;verticalAlign=middle;whiteSpace=wrap;rounded=0;" vertex="1" parent="1">
          <mxGeometry x="360" y="390" width="60" height="30" as="geometry" />
        </mxCell>
      </root>
    </mxGraphModel>
  </diagram>
</mxfile>
